<?xml version="1.0" encoding="utf-8"?><svg xmlns="http://www.w3.org/2000/svg" width="154" height="50" viewBox="0 0 154 50"><path d="M148.2 24.1h-11l.6-2.8H154l-12.3 16.6h12.1l-.4 2.7h-17.6l12.4-16.5zm-26.9-2.8l5.8 15.2 6.4-15.2h3l-9.2 21.3c-1.2 2.7-2.3 5.2-3.5 7.4H120c2-2.1 3.2-4.4 4.3-6.8l1.2-2.7-7.9-19.2h3.7zm-9.6 20.3c-.3-.7-.4-1.4-.5-2.1-2.3 1.3-4.5 2-6.6 2-5.5 0-9.4-4.1-9.4-10.3 0-6.3 4-10.5 10.4-10.5 1.7 0 3.5.4 5.4 1l3.5-.4v15.1c0 1.5.2 2.9.4 4.3l-3.2.9zm-.8-16.9c-1.8-.9-3.5-1.3-5-1.3-4.3 0-7.2 3.1-7.2 7.9 0 4.7 2.6 7.6 6.5 7.6 1.8 0 3.6-.7 5.7-1.8V24.7zM92.3 41h-4.9c-2.6-1.8-2.7-4.1-2.7-7.8V24h-4v-2.8h4v-6l3.6-.9v6.9h5.4V24h-5.4v8.7c-.1 4.3.2 6.4 4 8.3zm-20.1-2.3c2.2 0 3.5-1.1 3.5-2.7 0-2-1.4-2.5-3.7-3.5l-1.8-.7c-3.3-1.4-5-2.7-5-5.7 0-3.5 2.3-5.8 6.1-5.8 2.3 0 4.4.7 6.7 2l-.7 3c-2.2-1.6-4.2-2.4-5.9-2.4-1.9 0-3 1.1-3 2.5 0 1.8 1.1 2.3 3.9 3.4l1.5.6c3.6 1.4 5.3 3.1 5.3 6 0 3.6-2.6 6-6.9 6-2.6 0-5.2-.9-7.4-2.5l.4-3.3c2.6 2.1 5 3.1 7 3.1z"/><path fill-rule="evenodd" clip-rule="evenodd" fill="#79C237" d="M27.7.7l13.7 3.9-9.1 22-1.7-.6v23.1L16.4 38.7l.3-19.5-2.7-1.9"/><path fill-rule="evenodd" clip-rule="evenodd" fill="#FFF" d="M31 49.6l19.3-7.4-.3-20.5 2.8 1L41.2 5.6l-8.9 21-1.2-.7"/><path d="M41.1 3.5L27.5 0 14 17.3l2.1 1.6v20.2L0 45.5 31.2 50l19.5-7.5V22.1c.7.3 3.1 1.3 3.1 1.3L41.1 3.5zM30.6 26l-.4 22.1-13.1-9.4V37l7.7 5-7.7-5.8v-1.7l8.1 4.6-8.1-5.5v-1.9l7.8 4.8-7.8-5.7v-1.7l7.8 4.8-7.8-5.6v-1.9l7.9 4.8-7.9-5.7v-1.7l8.2 4.5-8.2-5.4v-1.8l8.4 4.3-8.4-5.2v-1.7l-2.6-1.3 1.2-1.5v.1l8.9 4.2-8.4-4.8 1.4-1.7 8.8 4.1-8.2-4.6 1.3-1.6 8.6 4-8.1-4.6 1.2-1.5 8.6 4-8.1-4.6L23 7.2l8.8 3.8-8.4-4.4 1.2-1.4 8.9 3.4-8.4-4 1-1.3 9.1 2.9-8.6-3.5 1.2-1.5L41 4.7l-8.4 21.1-7.8-3.7 5.8 3.9zm7.9 19.8V32.7l5.7-1.5.3 12.5c-1.9.6-4 1.4-6 2.1zm11.2-25.2v21.2c-.2.1-2.1.7-4.6 1.6l.1-13.5-7.7 2v14.2c-2.7 1-5.1 1.8-6.3 2.2v-22l1.5 1 8.7-20.5 10.5 15-2.2-1.2z"/></svg>