<svg xmlns="http://www.w3.org/2000/svg" viewBox="0 0 4066.308 522.735"><title>Horizontal-Stayz-Colour</title><path fill="#8cc740" d="M0 484.317h1973.484v38.418H0zM2139.13 484.317h1920.678v38.418h-1920.68z"/><g fill="#306eb5"><path d="M398.123 391.97c-41.414 0-70.716-38.5-70.716-89.547 0-44.28 21.652-90.46 71.7-90.46s69.774 50.028 69.774 89.5c0 52.448-30.328 90.505-70.76 90.505m1.935-211.764c-64.5 0-115.51 45.713-115.51 123.69 0 73.632 48.614 119.835 111.657 119.835 56.308 0 115.99-37.54 115.99-123.685 0-71.263-45.234-119.842-112.137-119.842M810.38 180.2c-22.153 0-37.57 5.777-51.5 16.343a96.606 96.606 0 0 0-26.023 30.33h-.948c-10.122-27.447-34.17-46.673-65.94-46.673-38.513 0-60.154 20.682-73.158 42.8H591.4l-1.952-37.51H552.4c1.444 19.277 1.918 38.966 1.918 63.038v169.9h41.38V277.89a58.165 58.165 0 0 1 3.4-20.7c6.725-21.172 25.968-42.334 52.41-42.334 32.308 0 48.645 26.91 48.645 64V418.43h41.39v-143.9a69.632 69.632 0 0 1 3.37-21.2c7.243-20.686 25.978-38.485 50.05-38.485 34.16 0 50.548 26.91 50.548 71.714v131.87h41.387V281.26c0-80.842-45.724-101.056-76.51-101.056M969.657 276.57c3.453-29.957 22.594-70.237 66.276-70.237 48.607 0 60.4 42.73 59.873 70.236zm69.712-101.14c-69.222 0-111.426 56.448-111.426 128.134 0 71.658 43.7 120.248 116.83 120.248 37.808 0 63.82-8.332 79.02-15.192l-7.312-30.955c-16.225 6.9-34.893 12.3-65.808 12.3-43.236 0-80.526-24.055-81.49-82.473h166.857a154.11 154.11 0 0 0 1.496-20.146c0-43.688-20.62-111.916-98.167-111.916M1243.45 280.954l32.44-95.725c6.357-20.107 11.79-40.26 16.658-59.9h1.016c4.92 19.17 9.816 38.807 17.19 60.4l32.365 95.22zm76.624-193.412h-51.552l-112.44 330.878h44.2l34.378-104.074h117.3l35.378 104.074H1433zM1776.536 180.805H1733.8l-33.832 119.3c-7.88 27.993-14.3 53.047-18.188 77.1h-1.48c-5.416-24.055-12.276-49.11-21.1-77.57l-36.828-118.832h-36.33l-38.78 120.767c-7.87 26.035-15.673 51.58-21.11 75.635h-1.5c-4.413-24.58-10.782-49.11-17.67-75.635l-31.417-120.767h-44.2l71.71 237.613h39.275l38.283-112.9c8.355-25.516 15.69-50.068 21.607-78.574h.965c5.907 28.02 12.79 51.57 21.11 78.078l36.342 113.4h39.3zM1871.652 391.914c-22.1 0-40.726-13.246-40.726-41.222 0-43.9 48.364-53.61 93.61-53.61 2.34 0 4.664.027 6.99.078v41.267a44.888 44.888 0 0 1-2.466 13.743c-6.883 20.095-26.464 39.744-57.408 39.744m11.29-216.48c-29.94 0-58.413 8.332-78.073 21.077l9.81 28.49c16.686-10.8 39.816-17.68 61.87-17.68 48.623 0 54 35.372 54 55.01v4.9c-.678 0-1.333-.006-2-.006-90.524 0-140.852 31.32-140.852 88.368 0 34.368 24.5 68.228 72.68 68.228 33.848 0 59.358-16.67 72.66-35.327h1.456l3.453 29.94h39.248c-2.956-16.21-3.9-36.32-3.9-56.94V272.6c0-47.6-17.7-97.163-90.348-97.163M2219.6 180.805h-45.662l-47.112 139.452c-5.912 17.19-10.837 35.333-15.25 49.555h-.992c-3.9-14.222-9.765-32.884-15.2-48.573l-52.06-140.434h-47.1l87.826 212.44c2.048 5.417 2.98 8.84 2.98 11.284s-1.48 5.907-3.437 10.33c-9.8 22.11-24.54 38.78-36.33 48.1a114.745 114.745 0 0 1-37.81 21.133l10.81 36.354c10.82-2 31.93-9.342 53.04-28.038 32.692-28.332 54.373-70.818 81.508-142.223zM2283.527 205.144v-8.92a17.666 17.666 0 0 1 3.938-.366c4.592 0 6.69 1.873 6.69 4.722 0 3.227-3.26 4.564-7.2 4.564zm4.52-14.617a81 81 0 0 0-11.955.96V222.6h7.2v-12.328h3.43c4.01 0 5.873 1.523 6.493 4.76.942 3.758 1.495 6.393 2.443 7.566h7.6c-.61-1.173-1.326-2.832-2.268-7.565-.96-4.186-2.522-6.663-5.512-7.593v-.395c3.61-1.145 6.454-3.6 6.454-7.42a7.966 7.966 0 0 0-3.227-6.65c-2.1-1.49-4.75-2.448-10.662-2.448m.8 40.77h-.39c-13.855 0-24.286-10.966-24.286-24.827 0-13.658 10.43-24.862 23.88-24.862 13.89 0 24.117 11.2 24.117 25.065 0 13.528-10.025 24.625-23.322 24.625m-.39-55.94c-18.03 0-32.263 13.646-32.263 31.112s14.233 31.35 32.065 31.35 31.885-13.878 31.885-31.35-14.064-31.113-31.688-31.113"/></g><path fill="#306eb5" d="M199.087 94.02v135.74H42.215V94.02H.345v324.403h41.87V266.34h156.872v152.083h42.373V94.02h-42.373"/><path d="M2558.757 26.385c3.582-4.31 6.443-8.14 9.76-11.537 1.185-1.2 3.8-2.268 5.3-1.867q65.083 17.1 130.076 34.55c.192.055.3.32 1.2 1.313-28.235 68.42-56.657 137.3-85.525 207.217-25.6-11.576-50.75-22.916-75.895-34.283-.288.44-.576.88-.858 1.32 1.884 1.33 3.718 2.725 5.658 3.983 15.16 9.76 30.43 19.35 45.4 29.358 2.172 1.467 4.23 4.9 4.192 7.38-.762 59.29-1.85 118.583-2.8 177.892-.17 11.44-.017 22.876-.017 36.128-3.814-2.324-5.754-3.374-7.548-4.615-41.008-28.365-81.886-56.89-123.086-85.01-7.413-5.05-2.76-11.4-5.185-19.08 25.606 15.785 49.435 30.48 73.265 45.183.327-.384.632-.745.937-1.128-1.546-1.292-3-2.685-4.632-3.887-19.717-14.452-39.124-29.34-59.37-43.066-8.176-5.568-10.754-11.627-8.367-21.6 25.432 13.878 50.576 27.626 75.742 41.392.3-.48.61-.953.914-1.433-7.132-4.7-14.24-9.433-21.394-14.126-14.888-9.72-29.32-20.225-44.855-28.862-10.64-5.93-12.162-13.5-9.533-24.687 23.43 13.76 46.536 27.356 69.644 40.946l1.107-1.37c-1.794-1.41-3.548-2.9-5.416-4.215-18.91-13.23-37.48-26.94-56.905-39.424-8.428-5.433-10.72-11.5-8.237-21.16 23.79 13.95 47.32 27.772 70.863 41.594.345-.434.667-.874.994-1.314-1.85-1.41-3.644-2.894-5.568-4.23q-27.8-19.473-55.614-38.876c-12.355-8.63-12.355-8.63-10.77-25.048 24.422 14.358 48.308 28.427 72.216 42.475.344-.44.688-.874 1.01-1.3-1.732-1.388-3.43-2.855-5.264-4.135-20.225-14.166-40.184-28.732-60.872-42.226-8.1-5.3-8.31-11.384-6.555-20.174 25.24 13.348 49.927 26.425 74.62 39.485.282-.44.57-.874.858-1.314-1.53-1.128-3-2.347-4.6-3.357q-31.283-19.88-62.645-39.736c-9.495-6.02-10.414-8.54-7.018-20.986q39.408 19.64 78.49 39.157c.265-.48.553-.935.818-1.41-4.44-2.707-8.863-5.47-13.325-8.157-20.016-12.033-39.92-24.253-60.15-35.96-5.32-3.068-8.083-6.425-6.882-12.314 1.354-6.618-1.484-10.336-7.932-12.796-5.985-2.268-11.53-5.68-18.07-8.976 3.1-3.814 5.355-7.667 8.655-10.2 1.62-1.258 5.6-.953 7.876.056 23.735 10.5 47.355 21.3 70.993 31.97 2.86 1.3 5.8 2.46 9.365 2.324-26.447-14.527-52.89-29.03-80.357-44.133 4.08-4.863 7.527-9.568 11.7-13.573 1.107-1.05 4.768-.513 6.754.36 24.343 10.85 48.6 21.907 72.882 32.89a12.274 12.274 0 0 0 7 1.332c-26.25-14.448-52.522-28.9-79.364-43.676 3.64-4.367 6.465-8.62 10.217-11.82 1.528-1.3 5.55-1.16 7.74-.19 23.107 10.2 46.08 20.72 69.113 31.13a15.263 15.263 0 0 0 8.118 1.72c-25.39-13.94-50.784-27.89-77.04-42.328 3.6-4.36 6.58-8.615 10.314-12.084 1.106-1.032 4.654-.5 6.6.36 22.244 9.88 44.4 19.96 66.592 29.952 2.21.993 4.536 1.77 6.8 2.668.27-.5.536-.993.784-1.484-24.27-13.365-48.522-26.73-73.554-40.517 3.644-4.36 6.256-8.462 9.878-11.458 1.62-1.33 5.6-1.314 7.87-.417 23.91 9.59 47.682 19.486 71.494 29.262a14.994 14.994 0 0 0 8.067 1.393c-26.216-13.23-52.432-26.464-79.347-40.054 3.142-3.83 5.546-7.78 9-10.52 1.676-1.337 5.6-1.224 7.966-.367 23.372 8.428 46.632 17.14 69.932 25.76 2.307.857 4.67 1.58 7.012 2.363.215-.513.423-1.01.65-1.523-25.638-11.84-51.28-23.683-77.666-35.863 2.19-2.708 4.27-4.784 5.754-7.187 2.5-4.045 5.416-4.462 9.974-3.03 23.485 7.34 47.106 14.336 70.693 21.427 2.364.722 4.784 1.24 7.165 1.867.192-.53.36-1.066.553-1.6-25.888-10.08-51.76-20.168-78.353-30.52" fill="#8cc740"/><path d="M2283.184 452.16c10.865-3.91 21.793-7.685 32.585-11.786 42.282-16.05 84.49-32.314 126.853-48.212 5.032-1.907 6.386-4.327 6.386-9.325q-.28-94.024 0-188.013c.022-5.072-1.332-8.372-5.755-11.176-5.247-3.295-10.03-7.317-15.633-11.492 9.263-11.52 18.357-22.86 27.49-34.187q53.3-66.176 106.59-132.344a47.463 47.463 0 0 0 3.32-5.626h5.6c17.025 4.48 34.01 9.11 51.077 13.42 26.858 6.788 53.78 13.31 80.604 20.152 2.652.683 5.7 2.4 7.108 4.536q63.23 95.775 126.138 191.77c.36.576.587 1.225 1.484 3.07-10.617-4.175-20.3-7.966-31.1-12.2v8.575c0 62.5-.073 124.97.152 187.466.023 5.392-1.62 7.78-6.883 9.7-60.55 22.288-121.19 44.437-181.34 67.7-11.536 4.46-21.775 2.346-32.505.857q-150.077-20.555-300.1-41.538a15.08 15.08 0 0 0-2.082 0zm275.564-425.775c26.594 10.352 52.488 20.44 78.354 30.52-.17.536-.36 1.066-.553 1.6-2.382-.626-4.8-1.145-7.15-1.85-23.58-7.108-47.2-14.11-70.71-21.45-4.535-1.426-7.474-1.01-9.95 3.036-1.507 2.42-3.583 4.48-5.778 7.188 26.4 12.18 52.026 24.02 77.672 35.857-.214.52-.423 1.01-.65 1.53-2.33-.785-4.693-1.507-7.017-2.365-23.294-8.62-46.553-17.33-69.932-25.76-2.364-.857-6.29-.97-7.95.362-3.446 2.747-5.872 6.7-9.014 10.527 26.94 13.59 53.132 26.824 79.348 40.054a14.942 14.942 0 0 1-8.045-1.393c-23.83-9.76-47.608-19.67-71.51-29.244-2.252-.914-6.257-.93-7.876.4-3.622 3-6.234 7.09-9.856 11.458 25.015 13.782 49.285 27.147 73.532 40.51-.248.5-.5.994-.762 1.49-2.268-.9-4.592-1.66-6.826-2.668-22.188-9.99-44.342-20.078-66.592-29.95-1.93-.86-5.472-1.394-6.578-.362-3.735 3.47-6.708 7.718-10.335 12.084 26.27 14.43 51.67 28.388 77.04 42.328a15.31 15.31 0 0 1-8.12-1.72c-23.01-10.41-45.983-20.93-69.107-31.13-2.178-.977-6.2-1.09-7.723.19-3.774 3.2-6.595 7.47-10.24 11.837 26.866 14.758 53.116 29.206 79.388 43.66a12.3 12.3 0 0 1-7.018-1.338c-24.287-10.978-48.54-22.036-72.882-32.884-1.963-.873-5.64-1.41-6.73-.36-4.192 4-7.644 8.71-11.706 13.573 27.474 15.1 53.9 29.606 80.34 44.133-3.565.135-6.482-1.027-9.342-2.324-23.66-10.68-47.264-21.466-71.015-31.97-2.25-.993-6.234-1.32-7.875-.062-3.3 2.54-5.546 6.392-8.637 10.2 6.522 3.317 12.067 6.713 18.075 8.98 6.426 2.46 9.263 6.178 7.932 12.796-1.2 5.89 1.563 9.246 6.882 12.332 20.225 11.69 40.11 23.91 60.127 35.936 4.46 2.69 8.884 5.455 13.324 8.18-.265.457-.53.914-.8 1.393-26.114-13.02-52.218-26.064-78.507-39.157-3.374 12.445-2.46 14.96 7.035 20.986q31.32 19.878 62.65 39.733c1.6 1.026 3.05 2.227 4.59 3.356-.287.434-.57.874-.857 1.33-24.687-13.076-49.4-26.136-74.637-39.5-1.754 8.79-1.523 14.872 6.578 20.175 20.682 13.495 40.647 28.062 60.872 42.227 1.833 1.275 3.51 2.747 5.263 4.135-.343.423-.687.858-1.03 1.3-23.887-14.053-47.796-28.123-72.195-42.475-1.6 16.41-1.6 16.41 10.753 25.048q27.824 19.42 55.63 38.875c1.908 1.33 3.72 2.82 5.563 4.23-.337.44-.665.875-.986 1.315l-70.868-41.6c-2.494 9.67-.21 15.728 8.22 21.167 19.43 12.485 38.012 26.193 56.91 39.423 1.885 1.314 3.623 2.8 5.434 4.214l-1.106 1.37c-23.107-13.573-46.232-27.164-69.667-40.95-2.63 11.192-1.106 18.763 9.55 24.692 15.543 8.637 29.974 19.142 44.862 28.88 7.147 4.67 14.26 9.4 21.39 14.108-.3.48-.63.953-.936 1.433-25.144-13.765-50.31-27.513-75.725-41.392-2.4 9.97.19 16.034 8.37 21.6 20.226 13.727 39.633 28.615 59.366 43.068 1.62 1.2 3.092 2.6 4.632 3.887-.322.384-.626.762-.93 1.128-23.83-14.7-47.666-29.4-73.267-45.166 2.4 7.66-2.227 14.013 5.186 19.063 41.177 28.123 82.072 56.64 123.08 85.01 1.794 1.242 3.718 2.308 7.53 4.616 0-13.252-.15-24.687.04-36.128.937-59.292 2.02-118.6 2.782-177.893.04-2.482-2-5.912-4.175-7.38-14.984-10.007-30.233-19.6-45.39-29.357-1.947-1.24-3.8-2.652-5.682-3.99.29-.433.57-.873.875-1.313 25.15 11.362 50.294 22.724 75.878 34.278 28.867-69.91 57.29-138.792 85.547-207.21-.9-.994-1.032-1.26-1.224-1.315q-65-17.364-130.058-34.548c-1.523-.384-4.118.666-5.3 1.867-3.34 3.4-6.2 7.227-9.782 11.537M2748.482 432.5c13.974-4.767 26.825-9.438 39.9-13.46 5.337-1.62 7-3.99 6.98-9.456-.232-65.2-.153-130.4-.153-195.607v-8.846c7.643 3.64 14.086 6.714 20.528 9.8.23-.343.457-.665.688-1.01-35.135-48.465-70.27-96.925-106.037-146.282-30.256 68.538-59.942 135.8-89.875 203.612-5.032-3-9.647-5.743-14.56-8.677v218.543c20.432-7 40.223-13.613 59.838-20.687 1.777-.627 3.47-3.96 3.53-6.1.323-12.395.153-24.807.153-37.218 0-31.13-.062-62.265.152-93.395.017-2.307 1.692-6.234 3.374-6.674 24.935-6.617 50.006-12.772 75.477-19.158zM2680 455.837c20.264-6.9 39.6-13.348 58.756-20.287 1.546-.553 2.635-4.4 2.572-6.69-.626-29.935-1.563-59.863-2.3-89.8-.21-9.112-.04-18.223-.04-28.175-19.445 4.857-37.48 9.3-55.404 14.047-1.523.4-3.43 2.973-3.43 4.558-.192 41.674-.152 83.33-.152 126.34M4066.308 182.486q-65.27 85.158-130.533 170.337c-7.614 9.943-15.195 19.933-23.838 31.276h152.95c-1.8 11.877-3.41 22.6-5.042 33.475H3837.1c51.825-67.44 102.9-133.917 155.1-201.85h-139.133c2.782-12.02 5.3-22.972 7.987-34.613H4056.9c3.127 0 6.28-.19 9.408-.284zM3530.34 402.462c-19.38 6.355-38.18 14.66-57.9 18.62-69.03 13.9-129.113-27.75-138.994-95.04-4.555-30.9-2.4-61.158 12.508-89.34 21-39.73 56.312-58.64 101.28-62.3a171.612 171.612 0 0 1 64.71 6.91c11.94 3.654 23.487 3.75 35.474 2.28 7.2-.887 14.457-1.482 22.457-2.28 2.863 77.008-3.27 154 4.237 232.13q-16.74 4.976-37.307 11.047c-2.376-8.076-4.69-15.94-6.47-22.025m-3.3-105.49c0-22.714-.163-45.45.115-68.163.048-5.076-1.326-7.98-6.518-9.557-10.39-3.154-20.427-7.547-30.972-10.017-41.1-9.61-79.507 4.21-98.858 35.953-16.805 27.56-18.572 57.457-10.748 87.853 10.8 41.93 46.43 65.05 90.275 57.165 17.32-3.113 33.65-11.14 50.457-16.84 5.008-1.69 6.43-4.8 6.362-9.833-.28-22.186-.116-44.373-.116-66.56M3111.546 229.1c-16.948-7.87-32.752-16.86-49.747-22.532-10.89-3.614-23.676-3.8-35.365-2.836-14.2 1.19-23.9 11.23-25.956 23.012-2.45 13.794 2.375 24.955 16.1 31.838 13.6 6.816 28.175 11.824 42.172 17.977 13.726 6.016 27.838 11.505 40.718 18.937 27.148 15.7 36.5 39.96 31.86 69.443-4.414 27.953-21.707 46.342-49.2 54.12-44.99 12.737-86.324 2.537-124.314-22.465a7.44 7.44 0 0 1-2.816-5.945c1.306-11.533 3.114-22.992 4.873-35.46 7.046 4.42 13.178 8.488 19.534 12.2 21.07 12.238 42.958 22.6 68.346 21.957a69.757 69.757 0 0 0 22.782-4.528c11.39-4.394 18.41-12.95 19.283-25.32.887-12.468-3.777-22.783-15.053-28.685-13.246-6.93-27.263-12.42-40.97-18.525-13.468-6-27.49-11.026-40.277-18.12-28.934-16.006-38.79-39.546-31.885-72.433 5.72-27.263 28.183-46.708 58.56-50.458 34.537-4.258 65.983 4.913 95.675 21.13 1.712.94 3.337 4.325 2.95 6.18-2.15 10.585-4.94 21.042-7.275 30.51M3201.238 214.788h-49.45v-33.443h48.9c.2-3.54.53-6.355.53-9.19.04-18.668.2-37.355-.096-56.015-.095-5.01 1.672-7.16 6.586-8.284 12.467-2.79 24.84-5.99 38.22-9.26v82.594h66.377v33.6h-66.08c-.155 3.337-.412 5.95-.412 8.575-.02 35.98-.135 71.96.095 107.96a212.623 212.623 0 0 0 2.037 27.494c3.04 22.666 15.37 39.614 35.358 51.553 3.526 2.1 7.093 4.162 12.88 7.547-21.455 0-40.556.142-59.655-.183-2.4-.04-4.982-2.173-7.134-3.8-18.8-14.295-26.647-33.963-27.127-56.15-.894-41.374-.758-82.776-1.03-124.15-.02-5.93 0-11.852 0-18.85" fill="#211f1f"/><path d="M2748.48 432.5V297.88c-25.47 6.385-50.542 12.546-75.477 19.157-1.68.457-3.357 4.366-3.374 6.674-.21 31.136-.153 62.266-.153 93.4 0 12.412.17 24.823-.152 37.235-.062 2.116-1.755 5.45-3.532 6.1-19.615 7.057-39.406 13.692-59.84 20.665V262.592c4.915 2.917 9.53 5.68 14.562 8.677 29.934-67.834 59.636-135.1 89.874-203.636 35.766 49.357 70.9 97.823 106.036 146.283-.23.344-.457.67-.666 1.01-6.465-3.07-12.908-6.155-20.535-9.8v8.846c0 65.2-.1 130.4.135 195.607.017 5.49-1.642 7.836-6.98 9.478-13.076 4-25.927 8.67-39.9 13.438" fill="#fff"/><path d="M2680 455.845c0-43.01-.04-84.684.152-126.363 0-1.563 1.907-4.135 3.43-4.536 17.923-4.767 35.96-9.19 55.422-14.07 0 9.974-.192 19.085.017 28.2.746 29.934 1.682 59.862 2.33 89.8.04 2.29-1.048 6.12-2.6 6.69-19.157 6.923-38.49 13.388-58.755 20.288" fill="#fff"/><path d="M3703.957 405.832c1.164 2.72 2.26 6.586 1.164 8.94-15.532 33.233-30.01 67.04-53.956 95.86-3.23 3.925-6.39 7.892-9.57 11.858h46.313c56.874-111.215 102.937-227.02 156.782-341.385-11.778 0-21.477.278-31.156-.088-5.28-.21-7.7 1.577-9.767 6.376-16.948 39.71-34.28 79.257-51.486 118.824-7.96 18.322-15.918 36.623-24.56 56.5-5.767-14.552-10.89-27.384-15.967-40.237q-26.62-67.35-53.36-134.7c-1.03-2.565-3.73-6.288-5.788-6.362-14.112-.568-28.25-.29-43.21-.29 1.6 4.182 2.7 7.2 3.96 10.15q45.322 107.256 90.602 214.554z" fill="#211f1f"/></svg>